<svg width="16" height="16" viewBox="0 0 16 16" fill="none" xmlns="http://www.w3.org/2000/svg">
<path d="M15.3438 4.35628C15.3155 4.28822 15.2678 4.23 15.2067 4.18887C15.1456 4.14775 15.0737 4.12554 15 4.12503H13.025C12.7809 3.67667 12.4218 3.30139 11.9846 3.03777C11.5474 2.77415 11.048 2.63169 10.5375 2.62503C9.77052 2.62169 9.03346 2.92233 8.48761 3.46115C7.94177 3.99996 7.63161 4.73307 7.625 5.50003V6.04378C4.975 5.41253 2.7875 3.25628 2.7625 3.23753C2.71432 3.18996 2.65416 3.15633 2.5884 3.1402C2.52264 3.12407 2.45375 3.12604 2.38902 3.1459C2.32429 3.16577 2.26615 3.20279 2.22077 3.25303C2.17539 3.30328 2.14445 3.36487 2.13125 3.43128C1.5875 6.40628 2.48125 8.39378 3.325 9.53753C3.7725 10.1499 4.32222 10.6806 4.95 11.1063C3.98125 12.2813 2.3875 12.8938 2.36875 12.9C2.3155 12.9196 2.2675 12.9513 2.22847 12.9925C2.18944 13.0337 2.16045 13.0833 2.14375 13.1375C2.12602 13.1904 2.12074 13.2467 2.12833 13.302C2.13591 13.3573 2.15616 13.4101 2.1875 13.4563C2.25 13.55 2.8625 14.375 5 14.375C9.35625 14.375 13 11.0063 13.35 6.68128L15.2625 4.76253C15.3167 4.71174 15.3537 4.64527 15.3683 4.57243C15.3828 4.49959 15.3743 4.42401 15.3438 4.35628ZM12.7188 6.25003C12.6537 6.31489 12.6158 6.402 12.6125 6.49378C12.3563 10.4938 9.0125 13.625 5 13.625C4.13125 13.625 3.575 13.475 3.24375 13.325C3.95 12.9688 5.10625 12.2688 5.8125 11.2063C5.84064 11.1622 5.85957 11.1129 5.86816 11.0614C5.87676 11.0098 5.87483 10.9571 5.8625 10.9063C5.84918 10.8543 5.82503 10.8057 5.79164 10.7637C5.75826 10.7217 5.71638 10.6872 5.66875 10.6625C5.65625 10.6625 4.71875 10.175 3.90625 9.06253C2.9375 7.73753 2.55625 6.11878 2.76875 4.25003C3.68125 5.02503 5.65 6.48753 7.9375 6.86878C7.99134 6.879 8.04678 6.8771 8.09979 6.86321C8.15281 6.84931 8.20205 6.82378 8.24396 6.78846C8.28586 6.75314 8.31936 6.70893 8.34203 6.65903C8.3647 6.60914 8.37596 6.55482 8.375 6.50003V5.50003C8.37995 4.93364 8.60885 4.39223 9.0117 3.99407C9.41455 3.59591 9.9586 3.37335 10.525 3.37503C10.9343 3.38094 11.3332 3.50423 11.6745 3.73024C12.0157 3.95626 12.2849 4.2755 12.45 4.65003C12.4785 4.7174 12.5264 4.77477 12.5876 4.81484C12.6489 4.8549 12.7206 4.87585 12.7938 4.87503H14.0938L12.7188 6.25003Z" fill="#DAC5A7"/>
</svg>
