<svg width="16" height="16" viewBox="0 0 16 16" fill="none" xmlns="http://www.w3.org/2000/svg">
<path d="M14.375 8.04377V8.00002C14.3756 7.05245 14.1643 6.11674 13.7566 5.26136C13.3489 4.40598 12.7552 3.65258 12.0188 3.05627L11.9875 3.02502L11.9563 3.00002C10.8312 2.10701 9.43639 1.62224 8 1.62502C7.04514 1.62256 6.10236 1.83848 5.24375 2.25627L5.16875 2.28752C4.29785 2.72184 3.53735 3.34887 2.94498 4.12101C2.35261 4.89315 1.94394 5.7901 1.75 6.74377V6.75627C1.66654 7.16558 1.62466 7.58229 1.625 8.00002C1.62524 8.99032 1.85642 9.96692 2.30016 10.8522C2.74391 11.7376 3.38799 12.5072 4.18125 13.1L4.24375 13.15H4.25625C5.34297 13.9445 6.65385 14.3734 8 14.375C8.72187 14.3772 9.43867 14.2546 10.1188 14.0125L10.1563 14C11.3812 13.557 12.4416 12.7504 13.1955 11.6882C13.9495 10.6259 14.361 9.35878 14.375 8.05627V8.04377ZM13.6125 7.64377C13.4125 7.63127 13.2063 7.62502 13 7.62502C12.0446 7.62389 11.0937 7.75642 10.175 8.01877C9.94358 7.31733 9.64206 6.641 9.275 6.00002L9.24375 5.95627C10.1996 5.39313 11.0602 4.68225 11.7938 3.85002C12.8695 4.83055 13.5217 6.19103 13.6125 7.64377ZM11.2063 3.38127C10.5267 4.15278 9.72681 4.80919 8.8375 5.32502C8.11848 4.28928 7.21868 3.3916 6.18125 2.67502C7.01568 2.3913 7.90505 2.3074 8.77781 2.43006C9.65057 2.55273 10.4824 2.87853 11.2063 3.38127ZM5.35625 3.03752C6.46276 3.71968 7.41952 4.61903 8.16875 5.68127C6.86718 6.30351 5.44266 6.626 4 6.62502C3.52306 6.62406 3.04681 6.58855 2.575 6.51877C2.77772 5.77997 3.1289 5.09025 3.60709 4.4917C4.08528 3.89316 4.68045 3.39836 5.35625 3.03752ZM2.375 8.00002C2.37589 7.7513 2.39259 7.50288 2.425 7.25627C2.9465 7.33333 3.47284 7.37301 4 7.37502C5.58851 7.3782 7.15631 7.0146 8.58125 6.31252L8.625 6.38127C8.96854 6.97329 9.24923 7.59962 9.4625 8.25002C8.89692 8.45207 8.35092 8.7052 7.83125 9.00627C6.43107 9.80847 5.23869 10.9281 4.35 12.275C3.73111 11.7478 3.23401 11.0925 2.89303 10.3544C2.55205 9.61634 2.3753 8.81305 2.375 8.00002ZM4.95 12.725C6.08412 11.0061 7.73399 9.69104 9.6625 8.96877C9.84258 9.70941 9.93282 10.4691 9.93125 11.2313C9.93397 11.9484 9.85428 12.6635 9.69375 13.3625C8.90495 13.6125 8.07062 13.685 7.25051 13.5748C6.43041 13.4646 5.64482 13.1744 4.95 12.725ZM10.5313 13.025C10.6311 12.4323 10.6813 11.8323 10.6813 11.2313C10.6821 10.391 10.5813 9.55365 10.3813 8.73752C11.2336 8.4982 12.1147 8.37624 13 8.37502C13.2063 8.37502 13.4063 8.38127 13.6125 8.39377C13.5432 9.36627 13.2229 10.3042 12.6829 11.1159C12.1428 11.9276 11.4015 12.5854 10.5313 13.025Z" fill="#DAC5A7"/>
</svg>
