<svg width="16" height="16" viewBox="0 0 16 16" fill="none" xmlns="http://www.w3.org/2000/svg">
<path d="M10.125 5C10.125 4.90054 10.1645 4.80516 10.2348 4.73484C10.3052 4.66451 10.4005 4.625 10.5 4.625H14.5C14.5995 4.625 14.6948 4.66451 14.7652 4.73484C14.8355 4.80516 14.875 4.90054 14.875 5C14.875 5.09946 14.8355 5.19484 14.7652 5.26516C14.6948 5.33549 14.5995 5.375 14.5 5.375H10.5C10.4005 5.375 10.3052 5.33549 10.2348 5.26516C10.1645 5.19484 10.125 5.09946 10.125 5ZM15.375 9.5C15.375 9.59946 15.3355 9.69484 15.2652 9.76517C15.1948 9.83549 15.0995 9.875 15 9.875H10.4063C10.4954 10.3655 10.7538 10.8093 11.1363 11.129C11.5189 11.4488 12.0014 11.6243 12.5 11.625C12.7792 11.6267 13.0558 11.5723 13.3135 11.4649C13.5712 11.3576 13.8047 11.1995 14 11C14.0712 10.9309 14.1664 10.8922 14.2656 10.8922C14.3648 10.8922 14.4601 10.9309 14.5313 11C14.567 11.0344 14.5954 11.0757 14.6148 11.1213C14.6342 11.1669 14.6442 11.216 14.6442 11.2656C14.6442 11.3152 14.6342 11.3643 14.6148 11.41C14.5954 11.4556 14.567 11.4968 14.5313 11.5312C14.0605 12.0012 13.4414 12.2934 12.7793 12.358C12.1173 12.4227 11.4533 12.2557 10.9006 11.8857C10.3478 11.5156 9.94049 10.9653 9.748 10.3286C9.55552 9.69184 9.58978 9.00807 9.84495 8.39377C10.1001 7.77947 10.5604 7.27266 11.1474 6.9597C11.7344 6.64674 12.4117 6.54701 13.0639 6.67749C13.7162 6.80797 14.3031 7.16059 14.7245 7.67526C15.1459 8.18993 15.3758 8.83481 15.375 9.5ZM14.5938 9.125C14.5082 8.63174 14.2513 8.18451 13.8682 7.86218C13.4852 7.53984 13.0006 7.36309 12.5 7.36309C11.9994 7.36309 11.5148 7.53984 11.1318 7.86218C10.7487 8.18451 10.4918 8.63174 10.4063 9.125H14.5938ZM8.625 9.875C8.625 10.538 8.36161 11.1739 7.89277 11.6428C7.42393 12.1116 6.78804 12.375 6.125 12.375H2C1.90054 12.375 1.80516 12.3355 1.73483 12.2652C1.66451 12.1948 1.625 12.0995 1.625 12V4C1.625 3.90054 1.66451 3.80516 1.73483 3.73483C1.80516 3.66451 1.90054 3.625 2 3.625H5.375C5.82495 3.62494 6.26458 3.75978 6.63712 4.01211C7.00965 4.26444 7.29798 4.62267 7.46485 5.04053C7.63173 5.45839 7.66949 5.91669 7.57325 6.35622C7.47702 6.79576 7.25121 7.19635 6.925 7.50625C7.42054 7.67362 7.8511 7.99221 8.15607 8.41714C8.46104 8.84207 8.62504 9.35196 8.625 9.875ZM2.375 7.375H5.375C5.77283 7.375 6.15436 7.21696 6.43566 6.93566C6.71697 6.65436 6.875 6.27282 6.875 5.875C6.875 5.47718 6.71697 5.09564 6.43566 4.81434C6.15436 4.53304 5.77283 4.375 5.375 4.375H2.375V7.375ZM7.875 9.875C7.87335 9.41138 7.68845 8.96721 7.36062 8.63938C7.03279 8.31155 6.58862 8.12665 6.125 8.125H2.375V11.625H6.125C6.58862 11.6234 7.03279 11.4384 7.36062 11.1106C7.68845 10.7828 7.87335 10.3386 7.875 9.875Z" fill="#DAC5A7"/>
</svg>
