<svg width="17" height="15" viewBox="0 0 17 15" fill="none" xmlns="http://www.w3.org/2000/svg">
<path d="M16.7233 2.1641C16.688 2.07903 16.6285 2.00625 16.552 1.95484C16.4756 1.90343 16.3858 1.87567 16.2937 1.87503H13.8249C13.5198 1.31458 13.0709 0.845492 12.5244 0.515964C11.978 0.186437 11.3536 0.00835989 10.7155 3.43041e-05C9.75681 -0.00413371 8.83548 0.371664 8.15318 1.04518C7.47087 1.7187 7.08317 2.63509 7.07491 3.59378V4.27347C3.76241 3.48441 1.02804 0.789097 0.996785 0.765659C0.936556 0.706203 0.861353 0.664161 0.779158 0.643997C0.696962 0.623833 0.610841 0.626298 0.529934 0.651131C0.449027 0.675964 0.376352 0.722238 0.319622 0.785043C0.262893 0.847847 0.224225 0.924839 0.207722 1.00785C-0.471965 4.7266 0.645223 7.21097 1.69991 8.64066C2.25929 9.40617 2.94643 10.0695 3.73116 10.6016C2.52022 12.0703 0.528035 12.836 0.504598 12.8438C0.438036 12.8683 0.378029 12.9078 0.329247 12.9593C0.280465 13.0108 0.244225 13.0729 0.223347 13.1407C0.201178 13.2068 0.19458 13.2772 0.204066 13.3463C0.213551 13.4154 0.238865 13.4814 0.278035 13.5391C0.35616 13.6563 1.12179 14.6875 3.79366 14.6875C9.23897 14.6875 13.7937 10.4766 14.2312 5.07035L16.6218 2.67191C16.6895 2.60842 16.7358 2.52534 16.754 2.43428C16.7722 2.34323 16.7615 2.24876 16.7233 2.1641ZM13.4421 4.53128C13.3608 4.61236 13.3134 4.72125 13.3093 4.83597C12.989 9.83597 8.80929 13.75 3.79366 13.75C2.70772 13.75 2.01241 13.5625 1.59835 13.375C2.48116 12.9297 3.92647 12.0547 4.80929 10.7266C4.84446 10.6715 4.86812 10.6099 4.87886 10.5455C4.8896 10.481 4.8872 10.4151 4.87179 10.3516C4.85513 10.2866 4.82495 10.2259 4.78321 10.1734C4.74148 10.1209 4.68913 10.0778 4.6296 10.0469C4.61397 10.0469 3.4421 9.43753 2.42647 8.04691C1.21553 6.39066 0.738972 4.36722 1.0046 2.03128C2.14522 3.00003 4.60616 4.82816 7.46553 5.30472C7.53283 5.3175 7.60214 5.31513 7.6684 5.29776C7.73466 5.28039 7.79623 5.24847 7.8486 5.20433C7.90098 5.16018 7.94286 5.10491 7.9712 5.04254C7.99953 4.98018 8.01361 4.91228 8.01241 4.84378V3.59378C8.0186 2.8858 8.30473 2.20904 8.80828 1.71134C9.31184 1.21363 9.9919 0.935443 10.6999 0.937534C11.2115 0.944921 11.7102 1.09903 12.1367 1.38156C12.5633 1.66408 12.8998 2.06313 13.1062 2.53128C13.1418 2.6155 13.2017 2.68721 13.2782 2.73729C13.3547 2.78738 13.4444 2.81357 13.5358 2.81253H15.1608L13.4421 4.53128Z" fill="#DAC5A7"/>
</svg>
