<svg width="16" height="16" viewBox="0 0 16 16" fill="none" xmlns="http://www.w3.org/2000/svg">
<path d="M7.65625 4.0625C6.94547 4.0625 6.25066 4.27327 5.65967 4.66816C5.06868 5.06304 4.60806 5.62431 4.33606 6.28098C4.06406 6.93765 3.99289 7.66024 4.13155 8.35736C4.27022 9.05447 4.61249 9.69482 5.11509 10.1974C5.61768 10.7 6.25803 11.0423 6.95514 11.1809C7.65226 11.3196 8.37485 11.2484 9.03152 10.9764C9.68819 10.7044 10.2495 10.2438 10.6443 9.65283C11.0392 9.06184 11.25 8.36703 11.25 7.65625C11.25 6.70313 10.8714 5.78904 10.1974 5.11509C9.52346 4.44113 8.60937 4.0625 7.65625 4.0625ZM7.65625 10.3125C7.13089 10.3125 6.61733 10.1567 6.18052 9.86484C5.7437 9.57297 5.40324 9.15812 5.2022 8.67275C5.00115 8.18739 4.94855 7.6533 5.05104 7.13804C5.15353 6.62278 5.40651 6.14948 5.778 5.778C6.14948 5.40651 6.62278 5.15353 7.13804 5.05104C7.6533 4.94855 8.18739 5.00115 8.67275 5.2022C9.15812 5.40324 9.57297 5.7437 9.86484 6.18052C10.1567 6.61733 10.3125 7.13089 10.3125 7.65625C10.3104 8.3601 10.0299 9.03453 9.53223 9.53223C9.03453 10.0299 8.3601 10.3104 7.65625 10.3125ZM11.0938 0H4.21875C3.09987 0 2.02681 0.444474 1.23564 1.23564C0.444474 2.02681 0 3.09987 0 4.21875V11.0938C0 12.2126 0.444474 13.2857 1.23564 14.0769C2.02681 14.868 3.09987 15.3125 4.21875 15.3125H11.0938C12.2126 15.3125 13.2857 14.868 14.0769 14.0769C14.868 13.2857 15.3125 12.2126 15.3125 11.0938V4.21875C15.3125 3.09987 14.868 2.02681 14.0769 1.23564C13.2857 0.444474 12.2126 0 11.0938 0ZM14.375 11.0938C14.375 11.964 14.0293 12.7986 13.4139 13.4139C12.7986 14.0293 11.964 14.375 11.0938 14.375H4.21875C3.34851 14.375 2.51391 14.0293 1.89856 13.4139C1.2832 12.7986 0.9375 11.964 0.9375 11.0938V4.21875C0.9375 3.34851 1.2832 2.51391 1.89856 1.89856C2.51391 1.2832 3.34851 0.9375 4.21875 0.9375H11.0938C11.964 0.9375 12.7986 1.2832 13.4139 1.89856C14.0293 2.51391 14.375 3.34851 14.375 4.21875V11.0938ZM12.5 3.59375C12.5 3.74827 12.4542 3.89931 12.3683 4.02779C12.2825 4.15627 12.1605 4.2564 12.0177 4.31553C11.875 4.37466 11.7179 4.39013 11.5663 4.35999C11.4148 4.32984 11.2756 4.25544 11.1663 4.14618C11.0571 4.03692 10.9827 3.89771 10.9525 3.74616C10.9224 3.59462 10.9378 3.43753 10.997 3.29478C11.0561 3.15202 11.1562 3.03001 11.2847 2.94416C11.4132 2.85832 11.5642 2.8125 11.7188 2.8125C11.926 2.8125 12.1247 2.89481 12.2712 3.04132C12.4177 3.18784 12.5 3.38655 12.5 3.59375Z" fill="#DAC5A7"/>
</svg>
