<svg width="16" height="16" viewBox="0 0 16 16" fill="none" xmlns="http://www.w3.org/2000/svg">
<path d="M15.9375 8.02346V7.96878C15.9382 6.78432 15.6741 5.61468 15.1645 4.54546C14.6549 3.47623 13.9127 2.53447 12.9922 1.78909L12.9531 1.75003L12.9141 1.71878C11.5078 0.602508 9.76424 -0.00345297 7.96875 2.6025e-05C6.77518 -0.00305147 5.5967 0.266848 4.52344 0.789088L4.42969 0.828151C3.34106 1.37105 2.39044 2.15484 1.64997 3.12001C0.90951 4.08519 0.398677 5.20637 0.156253 6.39846V6.41409C0.0519273 6.92573 -0.000421999 7.44661 2.56171e-06 7.96878C0.000304009 9.20665 0.289273 10.4274 0.843953 11.5341C1.39863 12.6407 2.20374 13.6028 3.19532 14.3438L3.27344 14.4063H3.28907C4.64746 15.3994 6.28606 15.9355 7.96875 15.9375C8.87108 15.9403 9.76709 15.787 10.6172 15.4844L10.6641 15.4688C12.1952 14.915 13.5207 13.9067 14.4632 12.579C15.4056 11.2512 15.92 9.66723 15.9375 8.03909V8.02346ZM14.9844 7.52346C14.7344 7.50784 14.4766 7.50003 14.2188 7.50003C13.0245 7.49861 11.8359 7.66428 10.6875 7.99221C10.3982 7.11541 10.0213 6.26999 9.5625 5.46878L9.52344 5.41409C10.7182 4.71017 11.794 3.82157 12.7109 2.78128C14.0556 4.00694 14.8709 5.70754 14.9844 7.52346ZM11.9766 2.19534C11.1272 3.15972 10.1273 3.98023 9.01563 4.62503C8.11685 3.33035 6.9921 2.20825 5.69532 1.31253C6.73835 0.957876 7.85006 0.852997 8.94101 1.00633C10.032 1.15966 11.0717 1.56692 11.9766 2.19534ZM4.66406 1.76565C6.0472 2.61835 7.24315 3.74254 8.17969 5.07034C6.55273 5.84814 4.77208 6.25125 2.96875 6.25003C2.37257 6.24883 1.77727 6.20444 1.1875 6.11721C1.4409 5.19372 1.87988 4.33156 2.47761 3.58338C3.07535 2.8352 3.81931 2.2167 4.66406 1.76565ZM0.937503 7.96878C0.938614 7.65787 0.959489 7.34735 1 7.03909C1.65188 7.13541 2.3098 7.18502 2.96875 7.18753C4.95439 7.19151 6.91414 6.73699 8.69532 5.8594L8.75 5.94534C9.17943 6.68537 9.53029 7.46827 9.79688 8.28128C9.08991 8.53384 8.4074 8.85025 7.75782 9.22659C6.00759 10.2293 4.51711 11.6288 3.40625 13.3125C2.63264 12.6535 2.01126 11.8344 1.58504 10.9118C1.15881 9.98917 0.937879 8.98507 0.937503 7.96878ZM4.15625 13.875C5.5739 11.7264 7.63624 10.0826 10.0469 9.17971C10.272 10.1055 10.3848 11.0551 10.3828 12.0078C10.3862 12.9043 10.2866 13.7982 10.0859 14.6719C9.09993 14.9844 8.05702 15.075 7.03189 14.9373C6.00676 14.7995 5.02477 14.4368 4.15625 13.875ZM11.1328 14.25C11.2576 13.5091 11.3203 12.7591 11.3203 12.0078C11.3213 10.9575 11.1954 9.91082 10.9453 8.89065C12.0108 8.5915 13.1121 8.43905 14.2188 8.43753C14.4766 8.43753 14.7266 8.44534 14.9844 8.46096C14.8978 9.67658 14.4974 10.849 13.8223 11.8636C13.1473 12.8783 12.2206 13.7005 11.1328 14.25Z" fill="#DAC5A7"/>
</svg>
