<svg width="15" height="18" viewBox="0 0 15 18" fill="none" xmlns="http://www.w3.org/2000/svg"><path d="M7.125 0.029 C 7.055 0.048,6.331 0.760,3.569 3.520 C 1.527 5.561,0.083 7.023,0.059 7.074 C -0.047 7.297,-0.005 7.530,0.174 7.703 C 0.355 7.879,0.591 7.918,0.812 7.808 C 0.853 7.787,2.207 6.452,3.819 4.841 L 6.750 1.913 6.751 9.550 C 6.751 16.905,6.753 17.191,6.797 17.288 C 6.995 17.719,7.583 17.736,7.807 17.316 L 7.863 17.213 7.875 9.579 L 7.888 1.946 10.839 4.883 C 13.989 8.017,13.835 7.875,14.075 7.875 C 14.213 7.874,14.411 7.769,14.499 7.648 C 14.643 7.449,14.657 7.237,14.538 7.038 C 14.505 6.983,12.939 5.400,11.058 3.520 C 8.383 0.847,7.613 0.091,7.525 0.052 C 7.404 -0.003,7.266 -0.010,7.125 0.029 " fill="#DAC5A7" stroke="none" fill-rule="evenodd"></path></svg>