<svg width="18" height="18" viewBox="0 0 18 18" fill="none" xmlns="http://www.w3.org/2000/svg"><path d="M12.018 0.031 C 11.038 0.143,10.083 0.548,9.330 1.171 C 8.966 1.472,8.013 2.434,7.950 2.564 C 7.741 2.996,8.125 3.463,8.591 3.345 C 8.719 3.312,8.796 3.247,9.354 2.694 C 10.037 2.017,10.313 1.796,10.762 1.566 C 11.356 1.261,11.893 1.132,12.570 1.132 C 13.658 1.132,14.581 1.517,15.345 2.291 C 15.927 2.879,16.253 3.481,16.429 4.292 C 16.470 4.485,16.483 4.670,16.482 5.070 C 16.482 5.528,16.471 5.638,16.403 5.928 C 16.273 6.485,16.053 6.956,15.696 7.440 C 15.465 7.754,12.951 10.266,12.641 10.492 C 11.599 11.255,10.246 11.464,9.030 11.050 C 8.703 10.938,8.207 10.676,7.965 10.488 C 7.563 10.174,7.537 10.159,7.353 10.146 C 7.043 10.124,6.792 10.329,6.758 10.631 C 6.728 10.898,6.833 11.052,7.271 11.381 C 7.893 11.846,8.607 12.157,9.435 12.321 C 9.852 12.404,10.825 12.395,11.249 12.304 C 11.735 12.199,12.187 12.041,12.599 11.831 C 13.266 11.491,13.415 11.366,14.875 9.916 C 15.606 9.189,16.297 8.487,16.409 8.355 C 16.957 7.710,17.334 6.946,17.519 6.105 C 17.888 4.423,17.325 2.615,16.054 1.402 C 15.454 0.829,14.644 0.374,13.877 0.176 C 13.316 0.032,12.540 -0.029,12.018 0.031 M6.780 5.271 C 5.887 5.365,4.984 5.730,4.216 6.309 C 3.899 6.547,1.328 9.119,1.075 9.450 C 0.570 10.112,0.268 10.771,0.085 11.614 C 0.027 11.879,0.017 12.016,0.017 12.540 C 0.016 13.238,0.067 13.582,0.258 14.153 C 0.764 15.663,1.929 16.841,3.422 17.351 C 4.705 17.790,6.043 17.707,7.275 17.114 C 7.914 16.807,8.300 16.504,9.137 15.655 C 9.586 15.199,9.685 15.083,9.716 14.974 C 9.839 14.552,9.454 14.166,9.026 14.281 C 8.914 14.311,8.803 14.407,8.265 14.937 C 7.483 15.708,7.251 15.888,6.719 16.136 C 5.476 16.716,4.018 16.599,2.850 15.825 C 2.561 15.634,2.007 15.080,1.815 14.790 C 1.482 14.289,1.270 13.753,1.181 13.192 C 1.110 12.746,1.137 12.026,1.238 11.640 C 1.384 11.085,1.599 10.632,1.933 10.177 C 2.149 9.882,4.748 7.316,5.050 7.099 C 5.317 6.908,5.782 6.671,6.090 6.569 C 6.849 6.317,7.804 6.318,8.561 6.572 C 8.924 6.694,9.377 6.931,9.668 7.152 C 10.075 7.461,10.104 7.478,10.257 7.493 C 10.455 7.512,10.595 7.459,10.721 7.320 C 10.903 7.119,10.928 6.878,10.790 6.651 C 10.666 6.447,10.096 6.036,9.578 5.777 C 9.054 5.516,8.608 5.377,8.032 5.295 C 7.756 5.255,7.052 5.242,6.780 5.271 " fill="#DAC5A7" stroke="none" fill-rule="evenodd"></path></svg>