<svg width="17" height="12" viewBox="0 0 17 12" fill="none" xmlns="http://www.w3.org/2000/svg"><path d="M16.093 0.045 C 16.028 0.073,14.254 1.827,10.901 5.179 L 5.809 10.271 3.351 7.816 C 1.999 6.465,0.852 5.340,0.802 5.315 C 0.698 5.263,0.466 5.256,0.349 5.300 C 0.162 5.371,0.002 5.611,0.001 5.821 C 0.000 5.882,0.025 5.984,0.056 6.047 C 0.094 6.125,0.989 7.038,2.826 8.872 C 5.409 11.451,5.546 11.583,5.674 11.613 C 5.774 11.638,5.842 11.638,5.943 11.614 C 6.072 11.583,6.299 11.360,11.384 6.279 C 14.302 3.363,16.723 0.929,16.764 0.871 C 16.852 0.745,16.881 0.536,16.831 0.385 C 16.731 0.082,16.382 -0.079,16.093 0.045 " fill="#DAC5A7" stroke="none" fill-rule="evenodd"></path></svg>