<svg width="20" height="20" viewBox="0 0 20 20" fill="none" xmlns="http://www.w3.org/2000/svg"><path d="M8.783 0.034 C 6.927 0.200,5.281 0.832,3.767 1.960 C 3.240 2.353,2.338 3.259,1.929 3.808 C 0.960 5.105,0.348 6.572,0.095 8.204 C 0.033 8.603,0.020 8.826,0.019 9.533 C 0.017 10.420,0.039 10.677,0.185 11.418 C 0.478 12.908,1.154 14.356,2.120 15.567 C 2.411 15.931,3.202 16.722,3.567 17.013 C 5.933 18.902,9.020 19.568,11.938 18.820 C 15.613 17.879,18.385 14.844,19.001 11.087 C 19.312 9.192,19.025 7.207,18.186 5.450 C 17.706 4.445,17.117 3.614,16.318 2.815 C 14.803 1.300,12.921 0.374,10.760 0.081 C 10.302 0.019,9.238 -0.006,8.783 0.034 M10.750 1.213 C 12.562 1.484,14.135 2.258,15.423 3.510 C 17.639 5.664,18.494 8.757,17.703 11.753 C 17.330 13.164,16.461 14.635,15.406 15.638 C 14.746 16.267,14.116 16.706,13.283 17.118 C 12.429 17.540,11.594 17.795,10.583 17.940 C 10.130 18.005,8.875 17.995,8.400 17.923 C 6.940 17.700,5.659 17.168,4.500 16.306 C 3.996 15.932,3.192 15.128,2.826 14.633 C 1.638 13.029,1.075 11.232,1.144 9.267 C 1.188 8.013,1.451 6.962,1.999 5.850 C 2.682 4.462,3.626 3.388,4.917 2.528 C 5.408 2.201,6.248 1.783,6.783 1.599 C 7.426 1.379,8.195 1.215,8.867 1.154 C 9.179 1.126,10.430 1.165,10.750 1.213 M8.867 4.563 C 8.625 4.649,8.364 4.920,8.299 5.154 C 8.199 5.510,8.280 5.846,8.523 6.089 C 8.696 6.263,8.875 6.343,9.122 6.360 C 9.519 6.387,9.848 6.198,10.023 5.841 C 10.389 5.095,9.655 4.283,8.867 4.563 M8.537 8.334 C 8.385 8.429,8.311 8.524,8.273 8.675 C 8.190 8.996,8.400 9.299,8.748 9.363 C 8.839 9.380,8.933 9.420,8.957 9.453 C 8.991 9.501,9.000 9.919,9.000 11.500 C 9.000 13.685,9.000 13.683,9.205 14.007 C 9.549 14.547,10.333 14.802,10.675 14.483 C 10.888 14.284,10.929 13.961,10.768 13.735 C 10.684 13.617,10.469 13.502,10.330 13.501 C 10.283 13.500,10.219 13.473,10.188 13.439 C 10.138 13.384,10.133 13.195,10.133 11.413 C 10.133 9.744,10.126 9.417,10.082 9.249 C 9.981 8.864,9.750 8.577,9.393 8.395 C 9.221 8.308,9.135 8.286,8.917 8.276 C 8.688 8.264,8.634 8.273,8.537 8.334 " fill="#DAC5A7" stroke="none" fill-rule="evenodd"></path></svg>