<svg width="20" height="15" viewBox="0 0 20 15" fill="none" xmlns="http://www.w3.org/2000/svg"><path d="M0.350 0.047 C 0.295 0.072,0.215 0.126,0.171 0.168 C -0.010 0.341,0.000 -0.052,0.000 6.976 C 0.000 12.827,0.005 13.506,0.053 13.669 C 0.193 14.148,0.588 14.504,1.084 14.598 C 1.231 14.626,3.508 14.634,9.683 14.626 L 18.083 14.617 18.275 14.539 C 18.635 14.394,18.890 14.136,19.043 13.763 L 19.117 13.583 19.125 7.039 C 19.134 0.680,19.132 0.491,19.071 0.352 C 19.036 0.274,18.951 0.166,18.882 0.113 L 18.755 0.017 9.603 0.010 C 1.987 0.004,0.433 0.010,0.350 0.047 M17.097 1.146 C 14.232 3.780,9.579 8.033,9.563 8.033 C 9.545 8.033,2.447 1.545,2.101 1.213 L 2.018 1.133 9.565 1.133 C 13.715 1.133,17.105 1.139,17.097 1.146 M5.264 5.633 C 7.430 7.623,9.251 9.276,9.309 9.308 C 9.459 9.391,9.689 9.383,9.838 9.291 C 9.905 9.250,11.765 7.560,13.971 5.535 L 17.983 1.853 17.992 7.616 C 18.000 12.942,17.996 13.382,17.945 13.439 C 17.892 13.498,17.593 13.500,9.572 13.500 C 1.880 13.500,1.251 13.496,1.194 13.445 C 1.136 13.392,1.133 13.167,1.133 7.626 L 1.133 1.862 1.229 1.939 C 1.282 1.982,3.097 3.644,5.264 5.633 " fill="#DAC5A7" stroke="none" fill-rule="evenodd"></path></svg>