<svg width="19" height="19" viewBox="0 0 19 19" fill="none" xmlns="http://www.w3.org/2000/svg"><path d="M4.196 0.046 C 2.745 0.311,1.500 1.164,0.728 2.423 C 0.448 2.879,0.206 3.509,0.088 4.094 C 0.025 4.405,0.016 4.543,0.017 5.193 C 0.017 6.013,0.055 6.457,0.192 7.271 C 0.793 10.839,2.855 14.024,5.892 16.076 C 7.644 17.260,9.572 17.977,11.764 18.260 C 12.098 18.304,12.426 18.318,13.094 18.318 C 14.071 18.319,14.286 18.291,14.929 18.075 C 16.074 17.692,17.100 16.848,17.712 15.786 C 18.175 14.984,18.434 13.915,18.289 13.410 C 18.199 13.096,17.975 12.803,17.702 12.643 C 17.641 12.608,16.552 12.134,15.282 11.591 C 13.117 10.664,12.959 10.602,12.740 10.585 C 12.294 10.551,12.243 10.577,10.806 11.532 C 10.104 11.999,9.499 12.382,9.462 12.382 C 9.368 12.382,8.848 12.098,8.471 11.842 C 7.789 11.378,7.213 10.828,6.731 10.181 C 6.332 9.645,5.985 9.050,5.985 8.901 C 5.985 8.866,6.344 8.292,6.782 7.625 C 7.220 6.958,7.612 6.340,7.653 6.251 C 7.792 5.948,7.814 5.662,7.721 5.352 C 7.681 5.219,5.853 0.938,5.741 0.716 C 5.576 0.388,5.268 0.147,4.891 0.049 C 4.672 -0.009,4.499 -0.009,4.196 0.046 M4.730 1.211 C 4.801 1.324,6.650 5.658,6.650 5.712 C 6.650 5.739,6.284 6.321,5.837 7.005 C 5.389 7.689,4.987 8.335,4.944 8.439 C 4.843 8.680,4.831 9.081,4.917 9.327 C 4.988 9.531,5.300 10.094,5.548 10.464 C 6.194 11.429,7.153 12.357,8.129 12.960 C 8.839 13.399,9.255 13.556,9.581 13.507 C 9.926 13.455,10.038 13.393,11.323 12.539 C 12.029 12.069,12.616 11.685,12.628 11.685 C 12.641 11.685,13.662 12.119,14.899 12.648 C 16.357 13.273,17.162 13.634,17.189 13.675 C 17.244 13.758,17.172 14.161,17.032 14.560 C 16.462 16.175,14.963 17.227,13.233 17.227 C 12.555 17.226,11.545 17.114,10.791 16.955 C 7.698 16.302,4.921 14.419,3.185 11.796 C 2.117 10.183,1.475 8.462,1.219 6.523 C 1.138 5.912,1.120 4.775,1.185 4.402 C 1.289 3.807,1.473 3.340,1.796 2.854 C 2.329 2.052,3.164 1.459,4.099 1.217 C 4.482 1.118,4.670 1.116,4.730 1.211 " fill="#DAC5A7" stroke="none" fill-rule="evenodd"></path></svg>