<svg width="21" height="14" viewBox="0 0 21 14" fill="none" xmlns="http://www.w3.org/2000/svg"><path d="M0.301 0.079 C 0.226 0.122,0.131 0.202,0.091 0.256 L 0.018 0.355 0.018 6.562 L 0.018 12.770 0.090 12.867 C 0.129 12.920,0.205 12.996,0.258 13.035 C 0.355 13.107,0.375 13.107,3.844 13.107 L 7.333 13.107 7.672 13.014 C 9.305 12.563,10.415 11.194,10.489 9.538 C 10.547 8.262,9.926 7.004,8.893 6.302 C 8.691 6.165,8.155 5.881,8.096 5.879 C 8.080 5.879,8.046 5.865,8.020 5.849 C 7.983 5.826,8.022 5.759,8.186 5.564 C 8.573 5.104,8.811 4.612,8.933 4.025 C 9.030 3.558,9.005 2.915,8.873 2.468 C 8.589 1.503,7.984 0.785,7.088 0.348 C 6.895 0.254,6.604 0.142,6.440 0.099 C 6.145 0.021,6.115 0.020,3.290 0.010 L 0.438 -0.000 0.301 0.079 M6.230 1.204 C 7.196 1.525,7.800 2.285,7.863 3.255 C 7.920 4.142,7.414 4.996,6.598 5.390 C 6.096 5.633,6.064 5.635,3.449 5.635 L 1.120 5.635 1.120 3.376 L 1.120 1.117 3.579 1.128 C 5.848 1.139,6.052 1.145,6.230 1.204 M13.038 1.584 C 12.750 1.746,12.670 2.096,12.858 2.379 C 13.030 2.640,12.860 2.628,16.380 2.617 L 19.513 2.608 19.631 2.523 C 19.882 2.344,19.942 1.971,19.758 1.730 C 19.577 1.493,19.766 1.505,16.305 1.506 L 13.178 1.506 13.038 1.584 M15.453 4.586 C 13.898 4.913,12.676 6.017,12.200 7.524 C 12.042 8.024,11.995 8.393,12.016 8.960 C 12.057 10.074,12.450 11.000,13.220 11.799 C 14.400 13.023,16.182 13.438,17.780 12.861 C 18.298 12.674,18.807 12.365,19.196 12.002 C 19.537 11.683,19.598 11.502,19.460 11.217 C 19.369 11.029,19.179 10.920,18.944 10.920 C 18.752 10.920,18.714 10.942,18.316 11.281 C 18.032 11.524,17.493 11.800,17.098 11.906 C 16.683 12.017,15.951 12.015,15.540 11.902 C 14.438 11.599,13.641 10.852,13.283 9.787 C 13.235 9.643,13.195 9.493,13.195 9.453 L 13.195 9.381 16.727 9.372 C 20.250 9.363,20.260 9.362,20.359 9.289 C 20.563 9.138,20.615 9.014,20.615 8.679 C 20.615 8.512,20.592 8.242,20.564 8.080 C 20.253 6.300,18.837 4.878,17.067 4.569 C 16.629 4.493,15.857 4.501,15.453 4.586 M17.080 5.711 C 18.190 5.977,19.107 6.879,19.386 7.980 L 19.452 8.243 16.335 8.251 C 14.621 8.256,13.211 8.253,13.202 8.244 C 13.169 8.210,13.264 7.837,13.373 7.577 C 13.978 6.121,15.531 5.340,17.080 5.711 M7.420 6.834 C 7.526 6.866,7.761 6.966,7.943 7.056 C 8.532 7.348,9.044 7.944,9.239 8.565 C 9.640 9.843,9.037 11.212,7.833 11.758 C 7.307 11.996,7.507 11.983,4.156 11.996 L 1.120 12.008 1.120 9.380 L 1.120 6.752 4.174 6.764 C 6.907 6.774,7.248 6.782,7.420 6.834 " fill="#DAC5A7" stroke="none" fill-rule="evenodd"></path></svg>