<svg width="20" height="20" viewBox="0 0 20 20" fill="none" xmlns="http://www.w3.org/2000/svg"><path d="M8.733 0.037 C 5.570 0.316,2.750 2.153,1.192 4.950 C 0.614 5.988,0.252 7.106,0.060 8.450 C -0.006 8.909,0.005 10.317,0.079 10.817 C 0.397 12.982,1.313 14.826,2.814 16.317 C 3.908 17.405,5.157 18.171,6.622 18.651 C 8.793 19.363,11.142 19.267,13.261 18.380 C 15.778 17.325,17.764 15.177,18.631 12.573 C 19.210 10.830,19.280 9.002,18.833 7.232 C 18.250 4.923,16.818 2.906,14.817 1.577 C 13.062 0.411,10.849 -0.149,8.733 0.037 M10.767 1.215 C 11.986 1.402,13.234 1.876,14.177 2.508 L 14.370 2.638 14.069 2.964 C 13.385 3.706,12.484 4.466,11.550 5.089 C 11.012 5.447,10.834 5.548,10.802 5.513 C 10.787 5.497,10.617 5.273,10.424 5.017 C 9.551 3.855,8.456 2.772,7.239 1.868 C 7.033 1.715,6.876 1.579,6.890 1.566 C 6.920 1.539,7.444 1.391,7.767 1.319 C 7.970 1.273,8.550 1.185,8.850 1.154 C 9.154 1.123,10.431 1.163,10.767 1.215 M5.930 2.335 C 7.234 3.178,8.551 4.407,9.524 5.690 C 9.755 5.995,9.803 6.077,9.765 6.102 C 9.652 6.173,8.980 6.455,8.533 6.618 C 6.388 7.402,4.143 7.662,1.817 7.396 C 1.633 7.375,1.471 7.346,1.456 7.333 C 1.440 7.319,1.487 7.130,1.560 6.912 C 2.079 5.363,3.058 3.961,4.317 2.964 C 4.693 2.666,5.497 2.140,5.584 2.135 C 5.603 2.134,5.759 2.224,5.930 2.335 M16.271 4.455 C 17.222 5.717,17.829 7.272,17.954 8.763 L 17.976 9.028 17.396 9.010 C 16.114 8.969,14.467 9.159,13.189 9.495 C 12.948 9.559,12.824 9.578,12.816 9.553 C 12.753 9.359,12.428 8.514,12.311 8.239 C 12.147 7.854,11.698 6.945,11.538 6.674 L 11.435 6.500 11.559 6.421 C 12.905 5.570,13.554 5.054,14.567 4.033 L 15.250 3.344 15.636 3.734 C 15.848 3.948,16.134 4.272,16.271 4.455 M10.704 7.508 C 10.837 7.749,11.053 8.187,11.186 8.482 C 11.419 9.000,11.734 9.822,11.733 9.908 C 11.732 9.931,11.541 10.023,11.308 10.112 C 11.074 10.202,10.628 10.398,10.316 10.548 C 7.917 11.703,5.883 13.424,4.352 15.590 L 4.089 15.963 3.969 15.869 C 3.796 15.731,3.248 15.157,3.013 14.867 C 2.228 13.898,1.687 12.810,1.386 11.598 C 1.219 10.922,1.168 10.544,1.145 9.817 C 1.127 9.246,1.164 8.525,1.214 8.475 C 1.224 8.465,1.446 8.482,1.708 8.513 C 4.276 8.820,6.881 8.487,9.250 7.550 C 9.543 7.434,9.926 7.272,10.100 7.191 C 10.274 7.109,10.427 7.049,10.440 7.056 C 10.453 7.063,10.572 7.266,10.704 7.508 M17.953 10.175 C 17.967 10.189,17.960 10.362,17.937 10.559 C 17.658 12.975,16.268 15.235,14.233 16.583 C 14.004 16.734,13.713 16.915,13.587 16.985 L 13.357 17.111 13.378 16.997 C 13.569 15.938,13.633 14.112,13.519 12.950 C 13.459 12.349,13.315 11.437,13.205 10.967 C 13.168 10.811,13.143 10.679,13.150 10.673 C 13.175 10.647,13.815 10.495,14.283 10.403 C 14.849 10.293,15.444 10.211,15.983 10.169 C 16.426 10.135,17.918 10.140,17.953 10.175 M12.115 11.275 C 12.465 12.804,12.545 14.636,12.334 16.278 C 12.261 16.849,12.125 17.555,12.080 17.600 C 12.038 17.642,11.349 17.815,10.970 17.880 C 10.154 18.018,9.129 18.033,8.367 17.916 C 7.351 17.761,6.294 17.401,5.442 16.921 C 4.926 16.630,4.949 16.696,5.227 16.306 C 6.883 13.988,8.932 12.337,11.533 11.229 C 11.781 11.124,12.000 11.036,12.021 11.035 C 12.042 11.034,12.084 11.142,12.115 11.275 " fill="#DAC5A7" stroke="none" fill-rule="evenodd"></path></svg>