<svg width="20" height="20" viewBox="0 0 20 20" fill="none" xmlns="http://www.w3.org/2000/svg"><path d="M8.767 0.034 C 7.042 0.198,5.457 0.771,4.098 1.721 C 2.680 2.712,1.473 4.175,0.815 5.700 C 0.483 6.469,0.225 7.365,0.095 8.204 C -0.005 8.846,-0.014 10.199,0.077 10.817 C 0.404 13.022,1.359 14.918,2.890 16.403 C 3.381 16.878,3.727 17.158,4.294 17.535 C 6.869 19.251,10.155 19.598,13.048 18.459 C 17.239 16.810,19.721 12.459,18.997 8.026 C 18.736 6.421,18.035 4.848,17.013 3.567 C 16.722 3.202,15.931 2.411,15.567 2.120 C 14.396 1.186,12.928 0.495,11.488 0.200 C 10.689 0.037,9.501 -0.035,8.767 0.034 M10.467 1.182 C 12.934 1.444,15.188 2.806,16.565 4.865 C 18.249 7.385,18.459 10.570,17.119 13.283 C 16.280 14.982,14.961 16.305,13.283 17.130 C 12.390 17.570,11.283 17.886,10.392 17.956 L 10.133 17.977 10.133 14.805 L 10.133 11.633 11.393 11.633 C 12.633 11.633,12.655 11.632,12.801 11.558 C 13.186 11.364,13.230 10.896,12.889 10.620 L 12.761 10.517 11.447 10.507 L 10.133 10.498 10.133 9.173 C 10.133 8.090,10.143 7.811,10.184 7.651 C 10.332 7.084,10.770 6.626,11.333 6.449 C 11.483 6.402,11.703 6.387,12.523 6.370 C 13.469 6.351,13.534 6.346,13.621 6.281 C 13.800 6.147,13.850 6.045,13.850 5.817 C 13.850 5.580,13.794 5.474,13.600 5.342 C 13.492 5.268,13.472 5.267,12.494 5.267 C 11.715 5.267,11.441 5.278,11.240 5.319 C 10.293 5.514,9.477 6.231,9.164 7.142 C 9.015 7.577,9.001 7.758,9.000 9.174 L 9.000 10.498 7.689 10.507 L 6.378 10.517 6.255 10.600 C 5.881 10.854,5.932 11.377,6.350 11.570 C 6.472 11.627,6.590 11.632,7.742 11.633 L 9.000 11.633 9.000 14.800 L 9.000 17.967 8.863 17.967 C 8.411 17.967,7.312 17.723,6.657 17.478 C 5.443 17.023,4.536 16.440,3.613 15.519 C 2.252 14.161,1.472 12.582,1.193 10.617 C 1.128 10.163,1.139 8.840,1.211 8.383 C 1.459 6.807,2.040 5.471,3.000 4.267 C 4.124 2.857,5.781 1.807,7.570 1.371 C 7.958 1.276,8.527 1.182,8.867 1.156 C 9.266 1.126,10.063 1.139,10.467 1.182 " fill="#DAC5A7" stroke="none" fill-rule="evenodd"></path></svg>