<svg width="19" height="19" viewBox="0 0 19 19" fill="none" xmlns="http://www.w3.org/2000/svg"><path d="M4.623 0.021 C 2.543 0.237,0.862 1.584,0.244 3.531 C 0.002 4.293,0.016 3.952,0.016 9.231 L 0.016 13.949 0.087 14.271 C 0.546 16.342,1.994 17.807,4.048 18.278 L 4.354 18.349 9.055 18.358 C 13.625 18.368,13.766 18.367,14.127 18.305 C 15.209 18.122,16.101 17.660,16.881 16.881 C 17.658 16.103,18.122 15.206,18.305 14.127 C 18.367 13.766,18.368 13.625,18.358 9.055 L 18.349 4.354 18.278 4.048 C 17.800 1.965,16.289 0.497,14.187 0.074 C 13.941 0.025,13.518 0.019,9.326 0.015 C 6.800 0.012,4.684 0.014,4.623 0.021 M13.974 1.187 C 15.577 1.467,16.813 2.661,17.169 4.275 L 17.242 4.608 17.242 9.168 C 17.242 14.222,17.254 13.918,17.036 14.574 C 16.593 15.902,15.449 16.898,14.037 17.186 C 13.778 17.239,13.453 17.242,9.199 17.242 C 4.321 17.242,4.512 17.248,3.936 17.081 C 2.527 16.673,1.444 15.449,1.187 13.974 C 1.115 13.560,1.117 4.798,1.189 4.382 C 1.469 2.778,2.758 1.480,4.357 1.191 C 4.740 1.122,13.579 1.118,13.974 1.187 M13.759 3.430 C 13.354 3.589,13.125 3.922,13.132 4.341 C 13.142 4.897,13.678 5.333,14.226 5.231 C 14.986 5.090,15.260 4.141,14.689 3.628 C 14.604 3.552,14.468 3.466,14.387 3.439 C 14.216 3.381,13.897 3.376,13.759 3.430 M8.772 4.894 C 8.728 4.902,8.593 4.923,8.471 4.942 C 8.349 4.961,8.108 5.019,7.936 5.071 C 6.604 5.476,5.557 6.487,5.108 7.806 C 4.735 8.898,4.818 10.073,5.340 11.113 C 5.584 11.596,5.775 11.860,6.173 12.256 C 7.402 13.482,9.289 13.836,10.900 13.142 C 12.163 12.598,13.106 11.444,13.410 10.070 C 13.440 9.938,13.471 9.613,13.480 9.337 C 13.501 8.766,13.452 8.383,13.294 7.885 C 12.819 6.389,11.546 5.256,10.003 4.956 C 9.750 4.906,8.939 4.866,8.772 4.894 M9.808 6.067 C 10.796 6.271,11.615 6.905,12.048 7.801 C 12.572 8.883,12.445 10.143,11.716 11.111 C 11.282 11.686,10.682 12.083,9.950 12.278 C 9.687 12.348,9.576 12.359,9.183 12.359 C 8.790 12.359,8.680 12.348,8.415 12.277 C 7.169 11.946,6.237 10.929,6.046 9.690 C 5.987 9.312,6.025 8.657,6.125 8.320 C 6.466 7.168,7.379 6.321,8.554 6.066 C 8.837 6.004,9.509 6.005,9.808 6.067 " fill="#DAC5A7" stroke="none" fill-rule="evenodd"></path></svg>