<svg width="17" height="20" viewBox="0 0 17 20" fill="none" xmlns="http://www.w3.org/2000/svg"><path d="M7.381 0.029 C 6.712 0.090,5.892 0.272,5.280 0.496 C 4.835 0.659,4.013 1.077,3.612 1.345 C 2.097 2.358,0.990 3.799,0.423 5.497 C -0.125 7.138,-0.138 8.889,0.384 10.512 C 0.598 11.176,0.976 11.998,1.157 12.194 C 1.328 12.379,1.595 12.429,1.813 12.318 C 2.010 12.217,2.106 12.075,2.120 11.862 C 2.130 11.693,2.124 11.672,1.975 11.387 C 1.558 10.594,1.323 9.869,1.184 8.953 C 1.136 8.637,1.136 7.491,1.185 7.154 C 1.405 5.615,2.083 4.246,3.161 3.165 C 3.715 2.610,4.255 2.224,4.987 1.860 C 5.656 1.527,6.314 1.317,7.041 1.203 C 7.442 1.141,8.269 1.119,8.698 1.159 C 11.766 1.451,14.270 3.709,14.859 6.715 C 14.953 7.192,14.988 7.572,14.988 8.087 C 14.988 9.188,14.777 10.157,14.340 11.064 C 14.029 11.708,13.745 12.119,13.275 12.604 C 12.648 13.252,11.947 13.704,11.137 13.982 C 9.765 14.453,8.144 14.287,7.074 13.566 C 6.867 13.427,6.495 13.074,6.356 12.885 L 6.258 12.751 7.067 9.312 C 7.512 7.420,7.876 5.829,7.876 5.777 C 7.876 5.724,7.852 5.629,7.823 5.566 C 7.637 5.156,7.037 5.133,6.833 5.529 C 6.734 5.719,3.732 18.514,3.755 18.642 C 3.847 19.147,4.498 19.294,4.775 18.874 C 4.826 18.795,4.970 18.225,5.387 16.447 C 5.687 15.170,5.935 14.120,5.939 14.114 C 5.943 14.109,6.024 14.170,6.120 14.250 C 7.212 15.158,8.889 15.561,10.481 15.299 C 13.120 14.863,15.231 12.803,15.896 10.016 C 16.174 8.847,16.195 7.588,15.954 6.427 C 15.461 4.049,13.912 2.011,11.753 0.899 C 10.953 0.487,10.115 0.221,9.194 0.085 C 8.735 0.018,7.819 -0.010,7.381 0.029 " fill="#DAC5A7" stroke="none" fill-rule="evenodd"></path></svg>