<svg width="18" height="20" viewBox="0 0 18 20" fill="none" xmlns="http://www.w3.org/2000/svg"><path d="M1.005 0.042 C 0.528 0.161,0.141 0.551,0.032 1.023 C 0.012 1.110,0.001 3.517,0.001 8.072 C -0.000 15.642,-0.012 15.100,0.168 15.455 C 0.321 15.759,0.715 16.042,1.077 16.110 C 1.165 16.126,1.635 16.140,2.119 16.140 L 3.000 16.140 3.001 17.782 C 3.001 19.315,3.005 19.433,3.057 19.545 C 3.124 19.690,3.219 19.782,3.367 19.844 C 3.497 19.898,3.574 19.901,3.726 19.859 C 3.807 19.836,4.455 19.313,6.047 17.984 L 8.257 16.140 10.322 16.140 C 12.500 16.140,12.571 16.136,12.862 16.000 C 12.965 15.951,13.718 15.344,15.037 14.245 C 16.147 13.320,17.120 12.501,17.199 12.424 C 17.375 12.254,17.495 12.068,17.569 11.850 C 17.623 11.691,17.625 11.480,17.625 6.390 C 17.625 1.300,17.623 1.089,17.569 0.930 C 17.460 0.609,17.197 0.291,16.925 0.153 C 16.608 -0.009,17.080 -0.000,8.806 0.003 C 2.823 0.005,1.122 0.013,1.005 0.042 M16.450 1.195 C 16.496 1.246,16.500 1.640,16.493 6.407 L 16.485 11.565 14.430 13.281 L 12.375 14.997 10.320 14.999 C 8.093 15.001,8.006 15.007,7.716 15.165 C 7.637 15.207,6.804 15.885,5.864 16.670 L 4.155 18.097 4.140 16.766 L 4.125 15.435 4.050 15.305 C 4.004 15.224,3.924 15.144,3.840 15.095 L 3.705 15.015 2.451 15.000 C 1.381 14.987,1.194 14.978,1.169 14.940 C 1.152 14.912,1.141 12.305,1.140 8.049 C 1.140 1.560,1.143 1.201,1.192 1.172 C 1.228 1.152,3.731 1.142,8.823 1.141 C 16.131 1.140,16.402 1.142,16.450 1.195 M7.832 4.565 C 7.758 4.604,7.657 4.687,7.607 4.750 L 7.515 4.866 7.507 7.255 C 7.497 9.911,7.490 9.806,7.697 9.987 C 7.961 10.220,8.363 10.150,8.545 9.840 L 8.625 9.705 8.625 7.320 C 8.625 4.959,8.624 4.934,8.562 4.815 C 8.422 4.546,8.087 4.432,7.832 4.565 M12.332 4.565 C 12.258 4.604,12.157 4.687,12.107 4.750 L 12.015 4.866 12.007 7.255 C 11.997 9.911,11.990 9.806,12.197 9.987 C 12.461 10.220,12.863 10.150,13.045 9.840 L 13.125 9.705 13.125 7.320 C 13.125 4.959,13.124 4.934,13.062 4.815 C 12.922 4.546,12.587 4.432,12.332 4.565 " fill="#DAC5A7" stroke="none" fill-rule="evenodd"></path></svg>