<svg width="20" height="20" viewBox="0 0 20 20" fill="none" xmlns="http://www.w3.org/2000/svg"><path d="M9.350 0.047 C 9.295 0.072,9.215 0.126,9.171 0.168 C 8.990 0.341,9.000 -0.036,9.000 6.784 C 9.000 12.428,8.994 13.130,8.947 13.359 C 8.760 14.266,7.997 14.926,7.064 14.990 C 5.795 15.076,4.724 13.935,4.898 12.684 C 4.992 12.005,5.349 11.481,5.960 11.122 C 6.405 10.862,6.370 11.090,6.359 8.525 L 6.350 6.350 6.270 6.237 C 6.155 6.076,5.935 5.987,5.724 6.015 C 5.435 6.053,4.825 6.224,4.464 6.367 C 2.856 7.007,1.537 8.224,0.758 9.783 C -0.083 11.469,-0.225 13.334,0.353 15.100 C 1.286 17.947,3.935 19.867,6.933 19.867 C 8.800 19.867,10.517 19.155,11.836 17.836 C 12.752 16.921,13.371 15.822,13.678 14.567 C 13.854 13.849,13.867 13.620,13.867 11.167 L 13.867 8.905 14.247 9.097 C 15.455 9.708,16.761 10.048,18.167 10.119 C 18.547 10.138,18.637 10.133,18.749 10.086 C 18.924 10.013,18.997 9.944,19.071 9.783 C 19.128 9.659,19.132 9.521,19.132 7.683 C 19.132 5.837,19.128 5.708,19.070 5.580 C 19.008 5.445,18.878 5.327,18.750 5.289 C 18.713 5.279,18.487 5.254,18.248 5.235 C 17.029 5.135,16.001 4.651,15.181 3.793 C 14.377 2.950,13.986 2.020,13.873 0.679 C 13.839 0.288,13.776 0.164,13.553 0.064 C 13.425 0.005,13.297 0.001,11.433 0.002 C 9.845 0.002,9.430 0.012,9.350 0.047 M12.780 1.208 C 12.788 1.250,12.826 1.456,12.865 1.667 C 13.220 3.577,14.569 5.215,16.389 5.946 C 16.803 6.112,17.453 6.286,17.784 6.320 L 18.000 6.343 18.000 7.655 L 18.000 8.967 17.858 8.966 C 17.684 8.965,17.136 8.888,16.800 8.817 C 15.812 8.608,14.751 8.161,13.910 7.600 C 13.719 7.473,13.507 7.353,13.439 7.335 C 13.197 7.271,12.926 7.396,12.812 7.624 C 12.753 7.743,12.749 7.906,12.731 10.750 C 12.713 13.704,12.711 13.755,12.638 14.083 C 12.521 14.604,12.352 15.079,12.116 15.550 C 11.199 17.380,9.426 18.563,7.351 18.732 C 6.179 18.827,4.901 18.511,3.873 17.873 C 2.623 17.096,1.701 15.853,1.334 14.451 C 1.177 13.848,1.150 13.629,1.150 12.933 C 1.150 12.238,1.177 12.019,1.334 11.417 C 1.798 9.642,3.114 8.133,4.797 7.445 C 4.991 7.366,5.169 7.300,5.192 7.300 C 5.224 7.300,5.233 7.617,5.233 8.776 L 5.233 10.252 5.127 10.315 C 4.961 10.413,4.506 10.863,4.350 11.083 C 3.897 11.722,3.688 12.498,3.769 13.250 C 3.810 13.640,3.975 14.167,4.156 14.492 C 4.887 15.799,6.458 16.426,7.879 15.978 C 9.069 15.603,9.926 14.589,10.097 13.355 C 10.122 13.176,10.133 11.223,10.133 7.114 L 10.133 1.133 11.449 1.133 L 12.765 1.133 12.780 1.208 " fill="#DAC5A7" stroke="none" fill-rule="evenodd"></path></svg>