<svg width="21" height="18" viewBox="0 0 21 18" fill="none" xmlns="http://www.w3.org/2000/svg"><path d="M12.268 0.038 C 10.635 0.262,9.233 1.420,8.718 2.969 C 8.565 3.429,8.506 3.810,8.481 4.506 C 8.469 4.838,8.447 5.110,8.432 5.110 C 8.351 5.110,7.488 4.840,7.077 4.686 C 5.244 3.999,3.100 2.653,1.454 1.155 C 1.281 0.998,1.097 0.847,1.044 0.820 C 0.829 0.708,0.486 0.789,0.347 0.985 C 0.265 1.099,0.177 1.542,0.081 2.316 C -0.005 3.015,-0.005 4.695,0.081 5.320 C 0.271 6.691,0.581 7.742,1.120 8.839 C 1.817 10.258,2.870 11.528,4.119 12.454 L 4.475 12.719 4.303 12.918 C 3.546 13.791,1.915 14.899,0.700 15.364 C 0.402 15.478,0.245 15.680,0.245 15.947 C 0.245 16.464,1.289 17.134,2.525 17.409 C 3.256 17.572,3.794 17.615,4.830 17.594 C 5.976 17.570,6.568 17.493,7.595 17.236 C 9.081 16.865,10.566 16.184,11.776 15.320 C 13.225 14.286,14.481 12.934,15.351 11.471 C 16.257 9.947,16.852 8.181,17.044 6.440 L 17.084 6.073 18.566 4.585 C 20.183 2.961,20.173 2.974,20.090 2.678 C 20.040 2.499,19.871 2.323,19.703 2.274 C 19.633 2.254,18.963 2.240,18.089 2.240 L 16.594 2.240 16.400 1.941 C 15.792 1.010,14.775 0.324,13.650 0.086 C 13.327 0.018,12.597 -0.008,12.268 0.038 M13.563 1.225 C 14.492 1.463,15.235 2.060,15.672 2.923 C 15.808 3.190,15.937 3.312,16.135 3.357 C 16.222 3.377,16.715 3.394,17.237 3.394 L 18.181 3.395 17.091 4.489 C 15.889 5.696,15.991 5.553,15.942 6.090 C 15.841 7.195,15.571 8.316,15.168 9.310 C 13.731 12.846,10.684 15.413,6.948 16.237 C 5.690 16.514,4.058 16.563,2.958 16.357 C 2.698 16.308,1.925 16.078,1.925 16.049 C 1.925 16.042,2.089 15.949,2.290 15.843 C 3.451 15.228,4.601 14.321,5.335 13.440 C 5.793 12.891,5.908 12.660,5.844 12.422 C 5.793 12.231,5.703 12.139,5.396 11.960 C 4.465 11.419,3.375 10.354,2.670 9.296 C 2.390 8.876,1.982 8.092,1.788 7.604 C 1.515 6.915,1.324 6.152,1.203 5.268 C 1.136 4.773,1.120 3.149,1.178 2.685 L 1.208 2.448 1.684 2.828 C 3.786 4.504,6.006 5.665,8.085 6.175 C 8.991 6.398,9.203 6.412,9.395 6.261 C 9.600 6.100,9.606 6.064,9.628 4.865 C 9.648 3.795,9.651 3.753,9.744 3.449 C 10.057 2.418,10.815 1.631,11.817 1.297 C 11.992 1.239,12.244 1.176,12.377 1.158 C 12.702 1.113,13.245 1.144,13.563 1.225 " fill="#DAC5A7" stroke="none" fill-rule="evenodd"></path></svg>