<svg width="20" height="20" viewBox="0 0 20 20" fill="none" xmlns="http://www.w3.org/2000/svg"><path d="M8.717 0.035 C 6.854 0.224,5.195 0.874,3.724 1.990 C 3.230 2.364,2.313 3.293,1.929 3.808 C 0.928 5.149,0.333 6.597,0.078 8.317 C -0.013 8.931,-0.005 10.287,0.094 10.924 C 0.180 11.478,0.357 12.203,0.520 12.671 C 0.662 13.078,0.937 13.724,1.067 13.955 L 1.163 14.126 0.580 15.871 L -0.004 17.617 0.012 17.875 C 0.040 18.344,0.308 18.766,0.704 18.964 C 0.957 19.090,1.228 19.146,1.450 19.118 C 1.546 19.106,2.385 18.843,3.313 18.534 L 5.002 17.972 5.476 18.199 C 7.860 19.343,10.631 19.428,13.120 18.433 C 17.139 16.827,19.593 12.666,19.047 8.386 C 18.904 7.267,18.628 6.355,18.117 5.317 C 17.641 4.350,17.092 3.585,16.320 2.813 C 14.802 1.296,12.902 0.364,10.750 0.082 C 10.267 0.019,9.131 -0.008,8.717 0.035 M10.753 1.211 C 12.303 1.461,13.526 1.982,14.749 2.911 C 15.118 3.192,15.788 3.851,16.103 4.242 C 17.094 5.472,17.688 6.847,17.921 8.450 C 18.001 9.001,18.001 10.133,17.921 10.683 C 17.833 11.289,17.744 11.667,17.562 12.217 C 16.992 13.933,15.858 15.455,14.383 16.482 C 13.280 17.251,12.055 17.724,10.617 17.938 C 10.163 18.006,8.881 17.997,8.400 17.923 C 7.382 17.767,6.448 17.461,5.578 16.998 C 5.309 16.855,5.169 16.800,5.077 16.800 C 5.000 16.800,4.232 17.039,3.150 17.400 C 2.160 17.730,1.329 18.000,1.303 18.000 C 1.231 18.000,1.133 17.898,1.133 17.824 C 1.133 17.787,1.403 16.955,1.733 15.974 C 2.090 14.915,2.333 14.140,2.333 14.065 C 2.333 13.975,2.272 13.821,2.119 13.528 C 1.406 12.156,1.094 10.800,1.144 9.286 C 1.185 8.024,1.446 6.976,1.998 5.850 C 2.834 4.145,4.139 2.841,5.850 1.999 C 6.768 1.548,7.686 1.281,8.717 1.167 C 9.099 1.125,10.392 1.153,10.753 1.211 M6.783 3.791 C 5.842 3.922,4.875 4.540,4.348 5.348 C 3.878 6.069,3.712 6.761,3.770 7.758 C 3.834 8.870,4.090 9.844,4.584 10.850 C 5.753 13.232,7.985 14.873,10.617 15.286 C 11.084 15.359,11.991 15.385,12.334 15.335 C 13.629 15.146,14.725 14.237,15.177 12.978 C 15.293 12.656,15.367 12.248,15.367 11.928 C 15.367 11.647,15.329 11.535,15.195 11.412 C 15.152 11.372,14.408 10.986,13.542 10.553 C 11.822 9.694,11.810 9.690,11.540 9.831 C 11.472 9.867,11.104 10.106,10.721 10.362 L 10.026 10.827 9.855 10.727 C 9.265 10.379,8.700 9.810,8.401 9.263 L 8.307 9.091 8.837 8.294 C 9.343 7.533,9.367 7.490,9.367 7.332 C 9.367 7.183,9.289 7.011,8.580 5.592 C 8.147 4.725,7.761 3.981,7.722 3.938 C 7.593 3.798,7.489 3.766,7.177 3.772 C 7.015 3.774,6.838 3.783,6.783 3.791 M7.575 6.083 L 8.167 7.267 7.642 8.055 L 7.117 8.843 7.118 9.046 C 7.119 9.228,7.139 9.288,7.307 9.610 C 7.411 9.808,7.583 10.092,7.690 10.242 C 7.932 10.582,8.471 11.132,8.800 11.375 C 9.262 11.716,9.880 12.033,10.082 12.033 C 10.227 12.033,10.342 11.969,11.104 11.463 L 11.858 10.962 13.037 11.551 C 13.686 11.876,14.220 12.144,14.225 12.148 C 14.256 12.176,14.078 12.715,13.967 12.928 C 13.640 13.557,13.119 13.975,12.416 14.170 C 11.926 14.306,10.948 14.248,10.112 14.032 C 7.349 13.320,5.313 11.018,4.934 8.179 C 4.877 7.751,4.884 7.022,4.948 6.750 C 5.146 5.905,5.844 5.185,6.674 4.967 C 6.807 4.932,6.932 4.903,6.950 4.902 C 6.969 4.901,7.250 5.433,7.575 6.083 " fill="#DAC5A7" stroke="none" fill-rule="evenodd"></path></svg>