<svg width="21" height="17" viewBox="0 0 21 17" fill="none" xmlns="http://www.w3.org/2000/svg"><path d="M8.820 0.035 C 6.151 0.167,3.921 0.509,2.298 1.037 C 1.653 1.246,1.370 1.396,1.082 1.680 C 0.672 2.084,0.499 2.522,0.319 3.605 C 0.080 5.044,0.020 5.939,0.020 8.068 C 0.020 10.191,0.080 11.095,0.317 12.518 C 0.498 13.607,0.666 14.038,1.067 14.438 C 1.369 14.740,1.635 14.883,2.293 15.096 C 5.709 16.204,11.406 16.450,15.897 15.682 C 17.311 15.440,18.730 15.036,19.196 14.742 C 19.539 14.526,19.874 14.124,20.022 13.751 C 20.250 13.177,20.482 11.629,20.580 10.028 C 20.627 9.256,20.627 6.890,20.580 6.096 C 20.472 4.297,20.216 2.767,19.925 2.189 C 19.762 1.865,19.392 1.496,19.058 1.323 C 18.132 0.844,15.882 0.367,13.563 0.159 C 12.102 0.028,10.052 -0.025,8.820 0.035 M12.215 1.191 C 14.475 1.327,16.346 1.611,17.745 2.031 C 18.409 2.231,18.712 2.386,18.856 2.602 C 18.982 2.791,19.010 2.878,19.130 3.469 C 19.571 5.639,19.617 9.587,19.231 12.093 C 19.063 13.181,18.934 13.549,18.648 13.756 C 18.359 13.965,16.979 14.352,15.785 14.557 C 12.600 15.107,8.994 15.150,5.618 14.679 C 4.359 14.504,2.908 14.164,2.251 13.890 C 1.982 13.778,1.751 13.569,1.663 13.359 C 1.596 13.200,1.451 12.491,1.368 11.918 C 1.074 9.904,1.051 6.712,1.314 4.603 C 1.450 3.511,1.602 2.836,1.765 2.598 C 1.911 2.384,2.227 2.222,2.870 2.030 C 5.193 1.338,8.984 0.998,12.215 1.191 M8.548 4.573 C 8.484 4.604,8.398 4.679,8.355 4.739 L 8.278 4.848 8.268 8.026 C 8.260 10.911,8.264 11.216,8.316 11.326 C 8.401 11.503,8.553 11.596,8.785 11.613 L 8.983 11.628 11.360 10.040 C 13.158 8.839,13.753 8.425,13.802 8.339 C 13.887 8.188,13.888 7.948,13.804 7.800 C 13.752 7.709,13.203 7.326,11.366 6.099 C 9.065 4.562,8.989 4.515,8.828 4.516 C 8.737 4.516,8.611 4.542,8.548 4.573 M12.260 8.048 C 12.274 8.062,11.633 8.508,10.833 9.041 L 9.380 10.010 9.380 8.067 L 9.380 6.125 10.806 7.074 C 11.591 7.596,12.245 8.035,12.260 8.048 " fill="#DAC5A7" stroke="none" fill-rule="evenodd"></path></svg>